# xmcd
#
# Track frame offsets:
#	150
#	13280
#	25815
#	35502
#	49780
#	62302
#	72172
#	87565
#	100495
#	110512
#	121940
#	132302
#	142807
#	155677
#	167617
#	179232
#
# Disc length: 2555
#
# Revision: 1
# Processed by: cddbd v1.5.1PL0 Copyright (c) Steve Scherf et al.
# Submitted via: dBpowerAMP V4.0
# Normalized: r0:DSETVAR2,TDELIM( - )
#
DISCID=e009f910
DTITLE=Various Artist - Country Box CD 2
DYEAR=1997
DGENRE=Country
TTITLE0=Kenny Rogers - Ruby Don´t Take Your Love To Town
TTITLE1=Wanda Jackson - Crazy
TTITLE2=Ned Miller - From a Jack To a King
TTITLE3=George Jones - Good Year For The Roses
TTITLE4=Johnny Cash - Folsom Prison Blues
TTITLE5=Hank Locklin - Please Help Me, I´m Falling
TTITLE6=Melba Montgomery - No Charge
TTITLE7=Lynn Anderson - Rose Garden
TTITLE8=Don Gibson - Lonesome Number One
TTITLE9=Ray Price - My Shoes Keep Walking Back To You
TTITLE10=Freddy Fender - Before The Next Teardrop Falls
TTITLE11=Lucille Starr - Jolie Jacqueline
TTITLE12=Merle Haggard - Sing Me Back Home
TTITLE13=Skeeter Davis - The End Of The World
TTITLE14=Patsy Cline - Walkin´ After Midnight
TTITLE15=Glenn Campbell - Rhinestone Cowboy (live)
EXTD=
EXTT0=
EXTT1=
EXTT2=
EXTT3=
EXTT4=
EXTT5=
EXTT6=
EXTT7=
EXTT8=
EXTT9=
EXTT10=
EXTT11=
EXTT12=
EXTT13=
EXTT14=
EXTT15=
PLAYORDER=
